G04 EAGLE Gerber RS-274X export*
G75*
%MOMM*%
%FSLAX34Y34*%
%LPD*%
%INBoard Outline*%
%IPPOS*%
%AMOC8*
5,1,8,0,0,1.08239X$1,22.5*%
G01*
%ADD10C,0.152400*%
%ADD11C,0.254000*%


D10*
X126600Y210200D02*
X126600Y175600D01*
X126602Y175402D01*
X126610Y175204D01*
X126622Y175006D01*
X126638Y174809D01*
X126660Y174612D01*
X126686Y174415D01*
X126717Y174219D01*
X126753Y174025D01*
X126793Y173831D01*
X126838Y173638D01*
X126888Y173446D01*
X126942Y173255D01*
X127001Y173066D01*
X127065Y172878D01*
X127133Y172692D01*
X127205Y172508D01*
X127282Y172325D01*
X127364Y172145D01*
X127449Y171966D01*
X127539Y171789D01*
X127633Y171615D01*
X127732Y171443D01*
X127834Y171273D01*
X127941Y171106D01*
X128052Y170942D01*
X128166Y170780D01*
X128284Y170621D01*
X128407Y170465D01*
X128533Y170312D01*
X128662Y170162D01*
X128795Y170016D01*
X128932Y169872D01*
X129072Y169732D01*
X129216Y169595D01*
X129362Y169462D01*
X129512Y169333D01*
X129665Y169207D01*
X129821Y169084D01*
X129980Y168966D01*
X130142Y168852D01*
X130306Y168741D01*
X130473Y168634D01*
X130643Y168532D01*
X130815Y168433D01*
X130989Y168339D01*
X131166Y168249D01*
X131345Y168164D01*
X131525Y168082D01*
X131708Y168005D01*
X131892Y167933D01*
X132078Y167865D01*
X132266Y167801D01*
X132455Y167742D01*
X132646Y167688D01*
X132838Y167638D01*
X133031Y167593D01*
X133225Y167553D01*
X133419Y167517D01*
X133615Y167486D01*
X133812Y167460D01*
X134009Y167438D01*
X134206Y167422D01*
X134404Y167410D01*
X134602Y167402D01*
X134800Y167400D01*
X145000Y167400D01*
X145159Y167398D01*
X145319Y167392D01*
X145478Y167383D01*
X145637Y167369D01*
X145796Y167352D01*
X145954Y167331D01*
X146111Y167306D01*
X146268Y167277D01*
X146424Y167245D01*
X146579Y167208D01*
X146734Y167168D01*
X146887Y167124D01*
X147040Y167077D01*
X147191Y167026D01*
X147340Y166971D01*
X147489Y166913D01*
X147636Y166851D01*
X147781Y166785D01*
X147925Y166716D01*
X148067Y166644D01*
X148207Y166568D01*
X148346Y166489D01*
X148482Y166406D01*
X148617Y166321D01*
X148749Y166232D01*
X148879Y166140D01*
X149007Y166044D01*
X149133Y165946D01*
X149256Y165844D01*
X149377Y165740D01*
X149495Y165633D01*
X149610Y165523D01*
X149723Y165410D01*
X149833Y165295D01*
X149940Y165177D01*
X150044Y165056D01*
X150146Y164933D01*
X150244Y164807D01*
X150340Y164679D01*
X150432Y164549D01*
X150521Y164417D01*
X150606Y164282D01*
X150689Y164146D01*
X150768Y164007D01*
X150844Y163867D01*
X150916Y163725D01*
X150985Y163581D01*
X151051Y163436D01*
X151113Y163289D01*
X151171Y163140D01*
X151226Y162991D01*
X151277Y162840D01*
X151324Y162687D01*
X151368Y162534D01*
X151408Y162379D01*
X151445Y162224D01*
X151477Y162068D01*
X151506Y161911D01*
X151531Y161754D01*
X151552Y161596D01*
X151569Y161437D01*
X151583Y161278D01*
X151592Y161119D01*
X151598Y160959D01*
X151600Y160800D01*
X151600Y160200D01*
X151602Y160057D01*
X151608Y159914D01*
X151618Y159771D01*
X151632Y159628D01*
X151649Y159486D01*
X151671Y159344D01*
X151696Y159203D01*
X151726Y159063D01*
X151759Y158923D01*
X151796Y158785D01*
X151837Y158648D01*
X151882Y158512D01*
X151930Y158377D01*
X151982Y158243D01*
X152038Y158111D01*
X152097Y157981D01*
X152160Y157852D01*
X152227Y157725D01*
X152297Y157600D01*
X152370Y157477D01*
X152447Y157356D01*
X152527Y157237D01*
X152610Y157120D01*
X152696Y157006D01*
X152786Y156894D01*
X152879Y156785D01*
X152974Y156678D01*
X153073Y156574D01*
X153174Y156473D01*
X153278Y156374D01*
X153385Y156279D01*
X153494Y156186D01*
X153606Y156096D01*
X153720Y156010D01*
X153837Y155927D01*
X153956Y155847D01*
X154077Y155770D01*
X154200Y155697D01*
X154325Y155627D01*
X154452Y155560D01*
X154581Y155497D01*
X154711Y155438D01*
X154843Y155382D01*
X154977Y155330D01*
X155112Y155282D01*
X155248Y155237D01*
X155385Y155196D01*
X155523Y155159D01*
X155663Y155126D01*
X155803Y155096D01*
X155944Y155071D01*
X156086Y155049D01*
X156228Y155032D01*
X156371Y155018D01*
X156514Y155008D01*
X156657Y155002D01*
X156800Y155000D01*
X163200Y155000D01*
X163422Y154997D01*
X163644Y154989D01*
X163866Y154976D01*
X164088Y154957D01*
X164309Y154933D01*
X164529Y154903D01*
X164749Y154869D01*
X164968Y154829D01*
X165185Y154783D01*
X165402Y154733D01*
X165617Y154677D01*
X165831Y154616D01*
X166043Y154550D01*
X166254Y154478D01*
X166462Y154402D01*
X166669Y154321D01*
X166874Y154234D01*
X167077Y154143D01*
X167277Y154047D01*
X167475Y153946D01*
X167671Y153841D01*
X167864Y153730D01*
X168054Y153615D01*
X168242Y153496D01*
X168426Y153371D01*
X168608Y153243D01*
X168786Y153110D01*
X168961Y152973D01*
X169133Y152832D01*
X169301Y152686D01*
X169465Y152537D01*
X169626Y152384D01*
X169784Y152226D01*
X169937Y152065D01*
X170086Y151901D01*
X170232Y151733D01*
X170373Y151561D01*
X170510Y151386D01*
X170643Y151208D01*
X170771Y151026D01*
X170896Y150842D01*
X171015Y150654D01*
X171130Y150464D01*
X171241Y150271D01*
X171346Y150075D01*
X171447Y149877D01*
X171543Y149677D01*
X171634Y149474D01*
X171721Y149269D01*
X171802Y149062D01*
X171878Y148854D01*
X171950Y148643D01*
X172016Y148431D01*
X172077Y148217D01*
X172133Y148002D01*
X172183Y147785D01*
X172229Y147568D01*
X172269Y147349D01*
X172303Y147129D01*
X172333Y146909D01*
X172357Y146688D01*
X172376Y146466D01*
X172389Y146244D01*
X172397Y146022D01*
X172400Y145800D01*
X172400Y145400D01*
X172402Y145243D01*
X172408Y145086D01*
X172417Y144929D01*
X172431Y144773D01*
X172448Y144617D01*
X172469Y144461D01*
X172494Y144306D01*
X172523Y144151D01*
X172556Y143998D01*
X172592Y143845D01*
X172632Y143693D01*
X172676Y143542D01*
X172723Y143392D01*
X172774Y143244D01*
X172829Y143097D01*
X172887Y142951D01*
X172949Y142806D01*
X173014Y142664D01*
X173083Y142522D01*
X173156Y142383D01*
X173231Y142245D01*
X173311Y142110D01*
X173393Y141976D01*
X173479Y141844D01*
X173567Y141715D01*
X173659Y141588D01*
X173755Y141463D01*
X173853Y141340D01*
X173954Y141220D01*
X174058Y141102D01*
X174165Y140987D01*
X174275Y140875D01*
X174387Y140765D01*
X174502Y140658D01*
X174620Y140554D01*
X174740Y140453D01*
X174863Y140355D01*
X174988Y140259D01*
X175115Y140167D01*
X175244Y140079D01*
X175376Y139993D01*
X175510Y139911D01*
X175645Y139831D01*
X175783Y139756D01*
X175922Y139683D01*
X176064Y139614D01*
X176206Y139549D01*
X176351Y139487D01*
X176497Y139429D01*
X176644Y139374D01*
X176792Y139323D01*
X176942Y139276D01*
X177093Y139232D01*
X177245Y139192D01*
X177398Y139156D01*
X177551Y139123D01*
X177706Y139094D01*
X177861Y139069D01*
X178017Y139048D01*
X178173Y139031D01*
X178329Y139017D01*
X178486Y139008D01*
X178643Y139002D01*
X178800Y139000D01*
X272400Y139200D01*
X272547Y139202D01*
X272693Y139208D01*
X272839Y139217D01*
X272985Y139231D01*
X273131Y139248D01*
X273276Y139269D01*
X273421Y139294D01*
X273564Y139322D01*
X273707Y139355D01*
X273849Y139391D01*
X273990Y139431D01*
X274130Y139474D01*
X274269Y139521D01*
X274407Y139572D01*
X274543Y139626D01*
X274678Y139684D01*
X274811Y139746D01*
X274942Y139810D01*
X275072Y139879D01*
X275200Y139950D01*
X275326Y140025D01*
X275450Y140103D01*
X275572Y140185D01*
X275692Y140270D01*
X275809Y140357D01*
X275924Y140448D01*
X276037Y140542D01*
X276147Y140638D01*
X276255Y140738D01*
X276360Y140840D01*
X276462Y140945D01*
X276562Y141053D01*
X276658Y141163D01*
X276752Y141276D01*
X276843Y141391D01*
X276930Y141508D01*
X277015Y141628D01*
X277097Y141750D01*
X277175Y141874D01*
X277250Y142000D01*
X277321Y142128D01*
X277390Y142258D01*
X277454Y142389D01*
X277516Y142522D01*
X277574Y142657D01*
X277628Y142793D01*
X277679Y142931D01*
X277726Y143070D01*
X277769Y143210D01*
X277809Y143351D01*
X277845Y143493D01*
X277878Y143636D01*
X277906Y143779D01*
X277931Y143924D01*
X277952Y144069D01*
X277969Y144215D01*
X277983Y144361D01*
X277992Y144507D01*
X277998Y144653D01*
X278000Y144800D01*
X278000Y189800D01*
X278003Y190027D01*
X278011Y190254D01*
X278025Y190481D01*
X278044Y190707D01*
X278069Y190933D01*
X278099Y191158D01*
X278134Y191383D01*
X278175Y191606D01*
X278221Y191828D01*
X278273Y192050D01*
X278330Y192269D01*
X278392Y192488D01*
X278460Y192705D01*
X278533Y192920D01*
X278611Y193133D01*
X278694Y193345D01*
X278782Y193554D01*
X278875Y193761D01*
X278974Y193966D01*
X279077Y194168D01*
X279185Y194368D01*
X279297Y194565D01*
X279415Y194760D01*
X279537Y194951D01*
X279664Y195140D01*
X279795Y195325D01*
X279931Y195507D01*
X280071Y195686D01*
X280215Y195862D01*
X280364Y196033D01*
X280517Y196202D01*
X280673Y196366D01*
X280834Y196527D01*
X280998Y196683D01*
X281167Y196836D01*
X281338Y196985D01*
X281514Y197129D01*
X281693Y197269D01*
X281875Y197405D01*
X282060Y197536D01*
X282249Y197663D01*
X282440Y197785D01*
X282635Y197903D01*
X282832Y198015D01*
X283032Y198123D01*
X283234Y198226D01*
X283439Y198325D01*
X283646Y198418D01*
X283855Y198506D01*
X284067Y198589D01*
X284280Y198667D01*
X284495Y198740D01*
X284712Y198808D01*
X284931Y198870D01*
X285150Y198927D01*
X285372Y198979D01*
X285594Y199025D01*
X285817Y199066D01*
X286042Y199101D01*
X286267Y199131D01*
X286493Y199156D01*
X286719Y199175D01*
X286946Y199189D01*
X287173Y199197D01*
X287400Y199200D01*
X364200Y199400D01*
X364326Y199398D01*
X364451Y199392D01*
X364576Y199382D01*
X364701Y199368D01*
X364826Y199351D01*
X364950Y199329D01*
X365073Y199304D01*
X365195Y199274D01*
X365316Y199241D01*
X365436Y199204D01*
X365555Y199164D01*
X365672Y199119D01*
X365789Y199071D01*
X365903Y199019D01*
X366016Y198964D01*
X366127Y198905D01*
X366236Y198843D01*
X366343Y198777D01*
X366448Y198708D01*
X366551Y198636D01*
X366652Y198561D01*
X366750Y198482D01*
X366845Y198400D01*
X366938Y198316D01*
X367028Y198228D01*
X367116Y198138D01*
X367200Y198045D01*
X367282Y197950D01*
X367361Y197852D01*
X367436Y197751D01*
X367508Y197648D01*
X367577Y197543D01*
X367643Y197436D01*
X367705Y197327D01*
X367764Y197216D01*
X367819Y197103D01*
X367871Y196989D01*
X367919Y196872D01*
X367964Y196755D01*
X368004Y196636D01*
X368041Y196516D01*
X368074Y196395D01*
X368104Y196273D01*
X368129Y196150D01*
X368151Y196026D01*
X368168Y195901D01*
X368182Y195776D01*
X368192Y195651D01*
X368198Y195526D01*
X368200Y195400D01*
X368200Y187400D01*
X368212Y187192D01*
X368230Y186985D01*
X368252Y186778D01*
X368279Y186572D01*
X368311Y186366D01*
X368348Y186162D01*
X368390Y185958D01*
X368437Y185755D01*
X368489Y185554D01*
X368546Y185354D01*
X368607Y185155D01*
X368674Y184958D01*
X368745Y184762D01*
X368821Y184568D01*
X368901Y184377D01*
X368986Y184187D01*
X369076Y183999D01*
X369170Y183813D01*
X369268Y183630D01*
X369371Y183449D01*
X369479Y183271D01*
X369590Y183096D01*
X369706Y182923D01*
X369826Y182753D01*
X369950Y182586D01*
X370078Y182422D01*
X370210Y182261D01*
X370345Y182103D01*
X370485Y181949D01*
X370628Y181798D01*
X370775Y181651D01*
X370925Y181507D01*
X371079Y181367D01*
X371236Y181230D01*
X371397Y181098D01*
X371560Y180969D01*
X371727Y180845D01*
X371896Y180724D01*
X372069Y180608D01*
X372244Y180495D01*
X372422Y180387D01*
X372602Y180284D01*
X372785Y180185D01*
X372970Y180090D01*
X373158Y179999D01*
X373347Y179914D01*
X373539Y179833D01*
X373732Y179756D01*
X373928Y179684D01*
X374124Y179617D01*
X374323Y179555D01*
X374523Y179498D01*
X374724Y179445D01*
X374927Y179397D01*
X375130Y179354D01*
X375335Y179317D01*
X375540Y179284D01*
X375746Y179256D01*
X375953Y179233D01*
X376160Y179215D01*
X376368Y179202D01*
X376576Y179194D01*
X376784Y179191D01*
X376992Y179193D01*
X377200Y179200D01*
X383800Y179000D01*
X384066Y178987D01*
X384331Y178968D01*
X384596Y178942D01*
X384860Y178910D01*
X385123Y178871D01*
X385385Y178827D01*
X385646Y178775D01*
X385906Y178718D01*
X386164Y178654D01*
X386421Y178584D01*
X386676Y178508D01*
X386929Y178426D01*
X387180Y178338D01*
X387428Y178243D01*
X387675Y178143D01*
X387918Y178037D01*
X388160Y177925D01*
X388398Y177807D01*
X388634Y177683D01*
X388866Y177554D01*
X389095Y177419D01*
X389321Y177279D01*
X389544Y177133D01*
X389763Y176982D01*
X389978Y176825D01*
X390189Y176664D01*
X390396Y176497D01*
X390600Y176326D01*
X390799Y176149D01*
X390994Y175968D01*
X391184Y175782D01*
X391370Y175592D01*
X391551Y175397D01*
X391727Y175198D01*
X391899Y174995D01*
X392065Y174787D01*
X392227Y174576D01*
X392383Y174361D01*
X392534Y174142D01*
X392680Y173919D01*
X392820Y173693D01*
X392955Y173464D01*
X393084Y173232D01*
X393208Y172996D01*
X393326Y172758D01*
X393438Y172516D01*
X393544Y172273D01*
X393644Y172026D01*
X393739Y171777D01*
X393827Y171527D01*
X393909Y171274D01*
X393985Y171019D01*
X394055Y170762D01*
X394118Y170504D01*
X394176Y170244D01*
X394227Y169983D01*
X394272Y169721D01*
X394310Y169458D01*
X394342Y169194D01*
X394368Y168929D01*
X394387Y168664D01*
X394400Y168398D01*
X394406Y168132D01*
X394406Y167866D01*
X394400Y167600D01*
X394400Y161800D01*
X394390Y161663D01*
X394385Y161525D01*
X394383Y161388D01*
X394385Y161250D01*
X394392Y161113D01*
X394402Y160976D01*
X394416Y160839D01*
X394434Y160702D01*
X394456Y160567D01*
X394481Y160431D01*
X394511Y160297D01*
X394544Y160164D01*
X394582Y160031D01*
X394623Y159900D01*
X394667Y159770D01*
X394716Y159641D01*
X394768Y159514D01*
X394823Y159388D01*
X394883Y159264D01*
X394945Y159141D01*
X395012Y159021D01*
X395081Y158902D01*
X395154Y158785D01*
X395231Y158671D01*
X395310Y158559D01*
X395393Y158449D01*
X395479Y158341D01*
X395568Y158236D01*
X395659Y158134D01*
X395754Y158034D01*
X395852Y157937D01*
X395952Y157843D01*
X396055Y157752D01*
X396160Y157663D01*
X396268Y157578D01*
X396379Y157496D01*
X396491Y157417D01*
X396606Y157341D01*
X396723Y157269D01*
X396842Y157200D01*
X396963Y157134D01*
X397086Y157072D01*
X397210Y157013D01*
X397336Y156958D01*
X397464Y156907D01*
X397593Y156859D01*
X397723Y156815D01*
X397855Y156775D01*
X397987Y156738D01*
X398121Y156705D01*
X398255Y156677D01*
X398391Y156651D01*
X398527Y156630D01*
X398663Y156613D01*
X398800Y156600D01*
X413200Y156600D01*
X413200Y186600D01*
X413291Y210218D01*
X126600Y210200D01*
D11*
X126600Y175600D02*
X126631Y174885D01*
X126725Y174176D01*
X126879Y173478D01*
X127095Y172795D01*
X127368Y172135D01*
X127699Y171500D01*
X128083Y170897D01*
X128518Y170329D01*
X129002Y169802D01*
X129529Y169318D01*
X130097Y168883D01*
X130700Y168499D01*
X131335Y168168D01*
X131995Y167895D01*
X132678Y167679D01*
X133376Y167525D01*
X134085Y167431D01*
X134800Y167400D01*
X145000Y167400D01*
X145575Y167375D01*
X146146Y167300D01*
X146708Y167175D01*
X147257Y167002D01*
X147789Y166782D01*
X148300Y166516D01*
X148786Y166206D01*
X149242Y165856D01*
X149667Y165467D01*
X150056Y165042D01*
X150406Y164586D01*
X150716Y164100D01*
X150982Y163589D01*
X151202Y163057D01*
X151375Y162508D01*
X151500Y161946D01*
X151575Y161375D01*
X151600Y160800D01*
X151600Y160200D01*
X151620Y159747D01*
X151679Y159297D01*
X151777Y158854D01*
X151914Y158422D01*
X152087Y158002D01*
X152297Y157600D01*
X152540Y157217D01*
X152817Y156858D01*
X153123Y156523D01*
X153458Y156217D01*
X153817Y155940D01*
X154200Y155697D01*
X154602Y155487D01*
X155022Y155314D01*
X155454Y155177D01*
X155897Y155079D01*
X156347Y155020D01*
X156800Y155000D01*
X163200Y155000D01*
X164002Y154965D01*
X164798Y154860D01*
X165581Y154687D01*
X166347Y154445D01*
X167088Y154138D01*
X167800Y153767D01*
X168477Y153336D01*
X169114Y152848D01*
X169705Y152305D01*
X170248Y151714D01*
X170736Y151077D01*
X171167Y150400D01*
X171538Y149688D01*
X171845Y148947D01*
X172087Y148181D01*
X172260Y147398D01*
X172365Y146602D01*
X172400Y145800D01*
X172400Y145400D01*
X172424Y144842D01*
X172497Y144289D01*
X172618Y143744D01*
X172786Y143211D01*
X173000Y142695D01*
X173257Y142200D01*
X173557Y141729D01*
X173897Y141286D01*
X174275Y140875D01*
X174686Y140497D01*
X175129Y140157D01*
X175600Y139857D01*
X176095Y139600D01*
X176611Y139386D01*
X177144Y139218D01*
X177689Y139097D01*
X178242Y139024D01*
X178800Y139000D01*
X272400Y139200D01*
X272888Y139221D01*
X273372Y139285D01*
X273849Y139391D01*
X274315Y139538D01*
X274767Y139725D01*
X275200Y139950D01*
X275612Y140213D01*
X276000Y140510D01*
X276360Y140840D01*
X276690Y141200D01*
X276987Y141588D01*
X277250Y142000D01*
X277475Y142433D01*
X277662Y142885D01*
X277809Y143351D01*
X277915Y143828D01*
X277979Y144312D01*
X278000Y144800D01*
X278000Y189800D01*
X278036Y190619D01*
X278143Y191432D01*
X278320Y192233D01*
X278567Y193015D01*
X278881Y193773D01*
X279259Y194500D01*
X279700Y195192D01*
X280199Y195842D01*
X280753Y196447D01*
X281358Y197001D01*
X282008Y197500D01*
X282700Y197941D01*
X283427Y198319D01*
X284185Y198633D01*
X284967Y198880D01*
X285768Y199057D01*
X286581Y199164D01*
X287400Y199200D01*
X364200Y199400D01*
X364549Y199385D01*
X364895Y199339D01*
X365235Y199264D01*
X365568Y199159D01*
X365890Y199025D01*
X366200Y198864D01*
X366494Y198677D01*
X366771Y198464D01*
X367028Y198228D01*
X367264Y197971D01*
X367477Y197694D01*
X367664Y197400D01*
X367825Y197090D01*
X367959Y196768D01*
X368064Y196435D01*
X368139Y196095D01*
X368185Y195749D01*
X368200Y195400D01*
X368200Y187400D01*
X368268Y186652D01*
X368400Y185913D01*
X368597Y185188D01*
X368855Y184483D01*
X369175Y183803D01*
X369552Y183154D01*
X369985Y182540D01*
X370469Y181966D01*
X371002Y181436D01*
X371578Y180955D01*
X372195Y180526D01*
X372846Y180152D01*
X373528Y179837D01*
X374235Y179582D01*
X374961Y179390D01*
X375701Y179261D01*
X376449Y179198D01*
X377200Y179200D01*
X383800Y179000D01*
X384757Y178923D01*
X385704Y178763D01*
X386633Y178522D01*
X387538Y178200D01*
X388411Y177800D01*
X389246Y177326D01*
X390037Y176781D01*
X390777Y176169D01*
X391461Y175495D01*
X392084Y174764D01*
X392640Y173982D01*
X393126Y173154D01*
X393538Y172286D01*
X393873Y171386D01*
X394129Y170461D01*
X394302Y169516D01*
X394393Y168560D01*
X394400Y167600D01*
X394400Y161800D01*
X394383Y161380D01*
X394403Y160960D01*
X394460Y160544D01*
X394553Y160134D01*
X394681Y159734D01*
X394843Y159346D01*
X395039Y158975D01*
X395266Y158621D01*
X395523Y158289D01*
X395808Y157980D01*
X396119Y157698D01*
X396454Y157443D01*
X396809Y157219D01*
X397182Y157026D01*
X397571Y156867D01*
X397973Y156742D01*
X398383Y156653D01*
X398800Y156600D01*
X413200Y156600D01*
X413200Y186600D01*
X413291Y210218D01*
X126600Y210200D01*
X126600Y175600D01*
M02*
