G04 EAGLE Gerber RS-274X export*
G75*
%MOMM*%
%FSLAX34Y34*%
%LPD*%
%INBottom Copper*%
%IPPOS*%
%AMOC8*
5,1,8,0,0,1.08239X$1,22.5*%
G01*
%ADD10C,0.756400*%
%ADD11C,1.106400*%
%ADD12C,0.254000*%
%ADD13C,1.650000*%

G36*
X420318Y130946D02*
X420318Y130946D01*
X420437Y130953D01*
X420475Y130966D01*
X420516Y130971D01*
X420626Y131014D01*
X420739Y131051D01*
X420774Y131073D01*
X420811Y131088D01*
X420907Y131158D01*
X421008Y131221D01*
X421036Y131251D01*
X421069Y131274D01*
X421145Y131366D01*
X421226Y131453D01*
X421246Y131488D01*
X421271Y131519D01*
X421322Y131627D01*
X421380Y131731D01*
X421390Y131771D01*
X421407Y131807D01*
X421429Y131924D01*
X421459Y132039D01*
X421463Y132100D01*
X421467Y132120D01*
X421465Y132140D01*
X421469Y132200D01*
X421469Y216600D01*
X421454Y216718D01*
X421447Y216837D01*
X421434Y216875D01*
X421429Y216916D01*
X421386Y217026D01*
X421349Y217139D01*
X421327Y217174D01*
X421312Y217211D01*
X421243Y217307D01*
X421179Y217408D01*
X421149Y217436D01*
X421126Y217469D01*
X421034Y217545D01*
X420947Y217626D01*
X420912Y217646D01*
X420881Y217671D01*
X420773Y217722D01*
X420669Y217780D01*
X420629Y217790D01*
X420593Y217807D01*
X420476Y217829D01*
X420361Y217859D01*
X420301Y217863D01*
X420281Y217867D01*
X420260Y217865D01*
X420200Y217869D01*
X121600Y217869D01*
X121482Y217854D01*
X121363Y217847D01*
X121325Y217834D01*
X121284Y217829D01*
X121174Y217786D01*
X121061Y217749D01*
X121026Y217727D01*
X120989Y217712D01*
X120893Y217643D01*
X120792Y217579D01*
X120764Y217549D01*
X120731Y217526D01*
X120656Y217434D01*
X120574Y217347D01*
X120554Y217312D01*
X120529Y217281D01*
X120478Y217173D01*
X120420Y217069D01*
X120410Y217029D01*
X120393Y216993D01*
X120371Y216876D01*
X120341Y216761D01*
X120337Y216701D01*
X120333Y216681D01*
X120335Y216660D01*
X120331Y216600D01*
X120331Y132200D01*
X120346Y132082D01*
X120353Y131963D01*
X120366Y131925D01*
X120371Y131884D01*
X120414Y131774D01*
X120451Y131661D01*
X120473Y131626D01*
X120488Y131589D01*
X120558Y131493D01*
X120621Y131392D01*
X120651Y131364D01*
X120674Y131331D01*
X120766Y131256D01*
X120853Y131174D01*
X120888Y131154D01*
X120919Y131129D01*
X121027Y131078D01*
X121131Y131020D01*
X121171Y131010D01*
X121207Y130993D01*
X121324Y130971D01*
X121439Y130941D01*
X121500Y130937D01*
X121520Y130933D01*
X121540Y130935D01*
X121600Y130931D01*
X420200Y130931D01*
X420318Y130946D01*
G37*
%LPC*%
G36*
X399809Y147379D02*
X399809Y147379D01*
X396217Y148867D01*
X393467Y151616D01*
X391979Y155209D01*
X391979Y159098D01*
X393467Y162690D01*
X396217Y165440D01*
X398422Y166353D01*
X398447Y166368D01*
X398475Y166377D01*
X398585Y166447D01*
X398698Y166511D01*
X398719Y166532D01*
X398744Y166547D01*
X398833Y166642D01*
X398926Y166732D01*
X398942Y166757D01*
X398962Y166779D01*
X399025Y166893D01*
X399093Y167003D01*
X399101Y167032D01*
X399116Y167057D01*
X399148Y167183D01*
X399186Y167307D01*
X399188Y167337D01*
X399195Y167365D01*
X399205Y167526D01*
X399205Y190517D01*
X399193Y190615D01*
X399190Y190714D01*
X399173Y190772D01*
X399165Y190832D01*
X399129Y190924D01*
X399101Y191019D01*
X399071Y191072D01*
X399048Y191128D01*
X398990Y191208D01*
X398940Y191293D01*
X398874Y191369D01*
X398862Y191385D01*
X398852Y191393D01*
X398834Y191414D01*
X387814Y202434D01*
X387736Y202494D01*
X387664Y202562D01*
X387611Y202591D01*
X387563Y202628D01*
X387472Y202668D01*
X387385Y202716D01*
X387327Y202731D01*
X387271Y202755D01*
X387173Y202770D01*
X387077Y202795D01*
X386977Y202801D01*
X386957Y202805D01*
X386945Y202803D01*
X386917Y202805D01*
X274283Y202805D01*
X274185Y202793D01*
X274086Y202790D01*
X274028Y202773D01*
X273968Y202765D01*
X273876Y202729D01*
X273781Y202701D01*
X273728Y202671D01*
X273672Y202648D01*
X273592Y202590D01*
X273507Y202540D01*
X273431Y202474D01*
X273415Y202462D01*
X273407Y202452D01*
X273386Y202434D01*
X267366Y196414D01*
X267306Y196336D01*
X267238Y196264D01*
X267209Y196211D01*
X267172Y196163D01*
X267132Y196072D01*
X267084Y195985D01*
X267069Y195927D01*
X267045Y195871D01*
X267030Y195773D01*
X267005Y195677D01*
X266999Y195577D01*
X266995Y195557D01*
X266997Y195545D01*
X266995Y195517D01*
X266995Y173636D01*
X267007Y173538D01*
X267010Y173439D01*
X267027Y173380D01*
X267035Y173320D01*
X267071Y173228D01*
X267099Y173133D01*
X267129Y173081D01*
X267152Y173025D01*
X267210Y172945D01*
X267260Y172859D01*
X267326Y172784D01*
X267338Y172767D01*
X267348Y172760D01*
X267366Y172738D01*
X268499Y171606D01*
X269307Y169656D01*
X269307Y167544D01*
X268499Y165594D01*
X267006Y164101D01*
X265056Y163293D01*
X262944Y163293D01*
X260994Y164101D01*
X259501Y165594D01*
X258693Y167544D01*
X258693Y169656D01*
X259501Y171606D01*
X261034Y173138D01*
X261094Y173217D01*
X261162Y173289D01*
X261191Y173342D01*
X261228Y173390D01*
X261268Y173481D01*
X261316Y173567D01*
X261331Y173626D01*
X261355Y173682D01*
X261370Y173779D01*
X261395Y173875D01*
X261401Y173975D01*
X261405Y173996D01*
X261403Y174008D01*
X261405Y174036D01*
X261405Y198358D01*
X271442Y208395D01*
X389758Y208395D01*
X404795Y193358D01*
X404795Y167322D01*
X404798Y167293D01*
X404796Y167263D01*
X404818Y167135D01*
X404835Y167006D01*
X404845Y166979D01*
X404850Y166950D01*
X404904Y166831D01*
X404952Y166711D01*
X404969Y166687D01*
X404981Y166660D01*
X405062Y166558D01*
X405138Y166453D01*
X405161Y166434D01*
X405180Y166411D01*
X405283Y166333D01*
X405383Y166250D01*
X405410Y166238D01*
X405434Y166220D01*
X405578Y166149D01*
X407290Y165440D01*
X410040Y162690D01*
X411528Y159098D01*
X411528Y155209D01*
X410040Y151616D01*
X407290Y148867D01*
X403698Y147379D01*
X399809Y147379D01*
G37*
%LPD*%
%LPC*%
G36*
X220944Y151493D02*
X220944Y151493D01*
X218994Y152301D01*
X217662Y153634D01*
X217583Y153694D01*
X217511Y153762D01*
X217458Y153791D01*
X217410Y153828D01*
X217319Y153868D01*
X217233Y153916D01*
X217174Y153931D01*
X217118Y153955D01*
X217021Y153970D01*
X216925Y153995D01*
X216825Y154001D01*
X216804Y154005D01*
X216792Y154003D01*
X216764Y154005D01*
X172242Y154005D01*
X170234Y156014D01*
X158005Y168242D01*
X158005Y193164D01*
X157993Y193262D01*
X157990Y193361D01*
X157973Y193420D01*
X157965Y193480D01*
X157929Y193572D01*
X157901Y193667D01*
X157871Y193719D01*
X157848Y193775D01*
X157790Y193856D01*
X157740Y193941D01*
X157674Y194016D01*
X157662Y194033D01*
X157652Y194041D01*
X157634Y194062D01*
X156101Y195594D01*
X155293Y197544D01*
X155293Y199656D01*
X156101Y201606D01*
X157594Y203099D01*
X159544Y203907D01*
X161656Y203907D01*
X163606Y203099D01*
X165099Y201606D01*
X165907Y199656D01*
X165907Y197544D01*
X165099Y195594D01*
X163966Y194462D01*
X163906Y194383D01*
X163838Y194311D01*
X163809Y194258D01*
X163772Y194210D01*
X163732Y194120D01*
X163684Y194033D01*
X163669Y193974D01*
X163645Y193919D01*
X163630Y193821D01*
X163605Y193725D01*
X163599Y193625D01*
X163595Y193604D01*
X163597Y193592D01*
X163595Y193564D01*
X163595Y171083D01*
X163607Y170985D01*
X163610Y170886D01*
X163627Y170828D01*
X163635Y170768D01*
X163671Y170676D01*
X163699Y170581D01*
X163729Y170528D01*
X163752Y170472D01*
X163810Y170392D01*
X163860Y170307D01*
X163926Y170231D01*
X163938Y170215D01*
X163948Y170207D01*
X163966Y170186D01*
X174186Y159966D01*
X174264Y159906D01*
X174336Y159838D01*
X174389Y159809D01*
X174437Y159772D01*
X174528Y159732D01*
X174615Y159684D01*
X174673Y159669D01*
X174729Y159645D01*
X174827Y159630D01*
X174923Y159605D01*
X175023Y159599D01*
X175043Y159595D01*
X175055Y159597D01*
X175083Y159595D01*
X200236Y159595D01*
X200374Y159612D01*
X200513Y159625D01*
X200532Y159632D01*
X200552Y159635D01*
X200681Y159686D01*
X200812Y159733D01*
X200829Y159744D01*
X200847Y159752D01*
X200960Y159833D01*
X201075Y159912D01*
X201088Y159927D01*
X201105Y159938D01*
X201194Y160046D01*
X201286Y160150D01*
X201295Y160168D01*
X201308Y160183D01*
X201367Y160309D01*
X201430Y160433D01*
X201435Y160453D01*
X201443Y160471D01*
X201469Y160607D01*
X201500Y160744D01*
X201499Y160764D01*
X201503Y160783D01*
X201494Y160922D01*
X201490Y161061D01*
X201484Y161081D01*
X201483Y161101D01*
X201440Y161233D01*
X201402Y161367D01*
X201391Y161384D01*
X201385Y161403D01*
X201311Y161521D01*
X201240Y161641D01*
X201221Y161662D01*
X201215Y161672D01*
X201200Y161686D01*
X201133Y161762D01*
X201061Y161834D01*
X200983Y161894D01*
X200911Y161962D01*
X200858Y161991D01*
X200810Y162029D01*
X200719Y162068D01*
X200633Y162116D01*
X200574Y162131D01*
X200518Y162155D01*
X200421Y162170D01*
X200325Y162195D01*
X200224Y162201D01*
X200204Y162205D01*
X200192Y162203D01*
X200164Y162205D01*
X186842Y162205D01*
X179605Y169442D01*
X179605Y193364D01*
X179593Y193462D01*
X179590Y193561D01*
X179573Y193620D01*
X179565Y193680D01*
X179529Y193772D01*
X179501Y193867D01*
X179471Y193919D01*
X179448Y193975D01*
X179390Y194055D01*
X179340Y194141D01*
X179274Y194216D01*
X179262Y194233D01*
X179252Y194240D01*
X179234Y194262D01*
X177901Y195594D01*
X177093Y197544D01*
X177093Y199656D01*
X177901Y201606D01*
X179394Y203099D01*
X181344Y203907D01*
X183456Y203907D01*
X185406Y203099D01*
X186899Y201606D01*
X187707Y199656D01*
X187707Y197544D01*
X186899Y195594D01*
X185566Y194262D01*
X185506Y194183D01*
X185438Y194111D01*
X185409Y194058D01*
X185372Y194010D01*
X185332Y193919D01*
X185284Y193833D01*
X185269Y193774D01*
X185245Y193718D01*
X185230Y193621D01*
X185205Y193525D01*
X185199Y193425D01*
X185195Y193404D01*
X185197Y193392D01*
X185195Y193364D01*
X185195Y172283D01*
X185207Y172185D01*
X185210Y172086D01*
X185227Y172028D01*
X185235Y171968D01*
X185271Y171876D01*
X185299Y171781D01*
X185329Y171728D01*
X185352Y171672D01*
X185410Y171592D01*
X185460Y171507D01*
X185526Y171431D01*
X185538Y171415D01*
X185548Y171407D01*
X185566Y171386D01*
X188786Y168166D01*
X188864Y168106D01*
X188936Y168038D01*
X188989Y168009D01*
X189037Y167972D01*
X189128Y167932D01*
X189215Y167884D01*
X189273Y167869D01*
X189329Y167845D01*
X189427Y167830D01*
X189523Y167805D01*
X189623Y167799D01*
X189643Y167795D01*
X189655Y167797D01*
X189683Y167795D01*
X200164Y167795D01*
X200262Y167807D01*
X200361Y167810D01*
X200420Y167827D01*
X200480Y167835D01*
X200572Y167871D01*
X200667Y167899D01*
X200719Y167929D01*
X200775Y167952D01*
X200855Y168010D01*
X200941Y168060D01*
X201016Y168126D01*
X201033Y168138D01*
X201040Y168148D01*
X201062Y168166D01*
X202394Y169499D01*
X204344Y170307D01*
X206456Y170307D01*
X208406Y169499D01*
X209899Y168006D01*
X210707Y166056D01*
X210707Y163944D01*
X209899Y161994D01*
X209666Y161762D01*
X209581Y161652D01*
X209492Y161545D01*
X209484Y161526D01*
X209471Y161510D01*
X209416Y161383D01*
X209357Y161257D01*
X209353Y161237D01*
X209345Y161218D01*
X209323Y161081D01*
X209297Y160944D01*
X209298Y160924D01*
X209295Y160904D01*
X209308Y160765D01*
X209317Y160627D01*
X209323Y160608D01*
X209325Y160588D01*
X209372Y160456D01*
X209415Y160325D01*
X209426Y160308D01*
X209433Y160288D01*
X209511Y160173D01*
X209585Y160056D01*
X209600Y160042D01*
X209611Y160025D01*
X209715Y159933D01*
X209817Y159838D01*
X209834Y159828D01*
X209850Y159815D01*
X209974Y159751D01*
X210095Y159684D01*
X210115Y159679D01*
X210133Y159670D01*
X210269Y159640D01*
X210403Y159605D01*
X210431Y159603D01*
X210443Y159600D01*
X210464Y159601D01*
X210564Y159595D01*
X216764Y159595D01*
X216862Y159607D01*
X216961Y159610D01*
X217020Y159627D01*
X217080Y159635D01*
X217172Y159671D01*
X217267Y159699D01*
X217319Y159729D01*
X217375Y159752D01*
X217455Y159810D01*
X217541Y159860D01*
X217616Y159926D01*
X217633Y159938D01*
X217640Y159948D01*
X217662Y159966D01*
X218994Y161299D01*
X220944Y162107D01*
X223056Y162107D01*
X225006Y161299D01*
X226499Y159806D01*
X227307Y157856D01*
X227307Y155744D01*
X226499Y153794D01*
X225006Y152301D01*
X223056Y151493D01*
X220944Y151493D01*
G37*
%LPD*%
%LPC*%
G36*
X366750Y181487D02*
X366750Y181487D01*
X364156Y182561D01*
X362171Y184546D01*
X361097Y187140D01*
X361097Y189947D01*
X362171Y192541D01*
X364156Y194526D01*
X366750Y195600D01*
X369557Y195600D01*
X372151Y194526D01*
X374136Y192541D01*
X375210Y189947D01*
X375210Y187140D01*
X374136Y184546D01*
X372151Y182561D01*
X369557Y181487D01*
X366750Y181487D01*
G37*
%LPD*%
D10*
X222400Y185000D03*
D11*
X278004Y150382D03*
D10*
X160600Y198600D03*
D12*
X160800Y198800D02*
X160800Y169400D01*
X173400Y156800D01*
X221800Y156800D01*
D10*
X222000Y156800D03*
X182400Y198600D03*
D12*
X182400Y170600D01*
X188000Y165000D01*
X205400Y165000D01*
D10*
X205400Y165000D03*
X264000Y168600D03*
D13*
X401754Y157153D03*
D11*
X368154Y188544D03*
D12*
X264200Y197200D02*
X264200Y168600D01*
X264200Y197200D02*
X272600Y205600D01*
X388600Y205600D01*
X402000Y192200D01*
X402000Y159200D01*
M02*
